<?xml version="1.0" encoding="UTF-8"?>
<svg version="1.1" xmlns="http://www.w3.org/2000/svg" width="150" height="81">
<path d="M0 0 C49.5 0 99 0 150 0 C150 26.73 150 53.46 150 81 C100.5 81 51 81 0 81 C0 54.27 0 27.54 0 0 Z " fill="none" transform="translate(0,0)"/>
<path d="M0 0 C3.51290923 2.586496 5.61665402 5.57973278 7.20703125 9.625 C7.51953125 12.625 7.51953125 12.625 7.20703125 14.625 C4.01953125 15.125 4.01953125 15.125 0.20703125 14.625 C-1.36285619 12.70964986 -2.43778404 10.71346758 -3.6171875 8.5390625 C-4.72379066 6.41476864 -4.72379066 6.41476864 -7.23046875 5.125 C-11.81376001 4.23069927 -14.62400606 4.06389791 -18.91796875 6.125 C-22.02137697 8.82361585 -23.13757917 10.93873607 -24.81640625 14.58984375 C-26.45435126 18.00332116 -27.953092 20.03755674 -30.79296875 22.625 C-33.20316691 23.21003955 -35.42575634 23.43342473 -37.90234375 23.51953125 C-39.8051464 23.41496955 -39.8051464 23.41496955 -40.79296875 24.625 C-40.83389812 26.95797433 -40.83538598 29.29205225 -40.79296875 31.625 C-38.81296875 32.285 -36.83296875 32.945 -34.79296875 33.625 C-34.79296875 35.935 -34.79296875 38.245 -34.79296875 40.625 C-39.75979107 40.91716602 -42.89646209 40.87208889 -46.79296875 37.625 C-49.36200975 33.81573231 -50.4555434 30.29444472 -50.27734375 25.65234375 C-49.34357114 21.74405355 -46.77776113 19.1844063 -43.79296875 16.625 C-40.09378044 14.49796672 -37.01695272 14.42853563 -32.79296875 14.625 C-32.75171875 13.8 -32.71046875 12.975 -32.66796875 12.125 C-31.3097749 6.69222458 -28.42489756 2.64262422 -23.96875 -0.7734375 C-15.95296258 -5.35853294 -7.87765694 -4.36682716 0 0 Z " fill="#1C699F" transform="translate(58.79296875,15.375)"/>
<path d="M0 0 C1.8975 -0.061875 3.795 -0.12375 5.75 -0.1875 C7.35101563 -0.23970703 7.35101563 -0.23970703 8.984375 -0.29296875 C12.30027855 0.02917214 13.59016673 0.77148914 16 3 C15.835 3.78375 15.67 4.5675 15.5 5.375 C14.9376293 7.88208039 14.9376293 7.88208039 15 10 C15.66 10.66 16.32 11.32 17 12 C16.75 15.0625 16.75 15.0625 16 18 C11.53794887 20.23102556 4.78092876 19.04346299 0 19 C0 12.73 0 6.46 0 0 Z " fill="#32619A" transform="translate(87,42)"/>
<path d="M0 0 C11.45149254 -0.36940299 11.45149254 -0.36940299 13.9140625 1.2890625 C15.6965124 4.09738284 14.51731414 6.83863584 14 10 C14.66 10.66 15.32 11.32 16 12 C16.3125 14.5 16.3125 14.5 16 17 C11.0754853 20.2830098 5.82305673 19.11530805 0 19 C0 12.73 0 6.46 0 0 Z " fill="#0B73A4" transform="translate(108,42)"/>
<path d="M0 0 C0.99 0 1.98 0 3 0 C3.06058594 0.91523437 3.12117188 1.83046875 3.18359375 2.7734375 C3.26738281 3.96195313 3.35117188 5.15046875 3.4375 6.375 C3.51871094 7.55835938 3.59992188 8.74171875 3.68359375 9.9609375 C3.81084936 12.91518901 3.81084936 12.91518901 5 15 C6.99954746 15.04254356 9.00041636 15.04080783 11 15 C12.94090826 13.05909174 12.39919435 9.52706098 12.5625 6.9375 C12.64628906 5.64714844 12.73007813 4.35679688 12.81640625 3.02734375 C12.87699219 2.02832031 12.93757813 1.02929688 13 0 C14.32 0 15.64 0 17 0 C17.10853983 2.22808159 17.18583307 4.45769932 17.25 6.6875 C17.29640625 7.92886719 17.3428125 9.17023437 17.390625 10.44921875 C16.93733018 14.5696687 15.89748679 16.10787892 13 19 C10.11138291 20.44430855 8.20352299 20.37688506 5 20 C2.3203125 17.96484375 2.3203125 17.96484375 0 15 C-0.36771245 12.1612599 -0.48630804 9.98179849 -0.3125 7.1875 C-0.28994141 6.49462891 -0.26738281 5.80175781 -0.24414062 5.08789062 C-0.18562661 3.39098427 -0.0959548 1.69520139 0 0 Z " fill="#496EA1" transform="translate(66,42)"/>
<path d="M0 0 C0.99 0 1.98 0 3 0 C3 2.64 3 5.28 3 8 C6.3 8 9.6 8 13 8 C13 5.36 13 2.72 13 0 C13.99 0 14.98 0 16 0 C16 6.27 16 12.54 16 19 C15.01 19 14.02 19 13 19 C13 16.36 13 13.72 13 11 C9.7 11 6.4 11 3 11 C3 13.64 3 16.28 3 19 C2.01 19 1.02 19 0 19 C0 12.73 0 6.46 0 0 Z " fill="#08659D" transform="translate(45,42)"/>
<path d="M0 0 C2.375 1.5625 2.375 1.5625 4 4 C3.9375 7.625 3.9375 7.625 3 11 C-0.46923881 13.31282587 -1.92205575 13.42478586 -6 13 C-7.875 11.9375 -7.875 11.9375 -9 10 C-9.4375 6.5 -9.4375 6.5 -9 3 C-6.35893733 -0.03233122 -3.92985113 -0.68772395 0 0 Z " fill="#1774A6" transform="translate(35,46)"/>
<path d="M0 0 C1.8975 -0.061875 3.795 -0.12375 5.75 -0.1875 C7.35101563 -0.23970703 7.35101563 -0.23970703 8.984375 -0.29296875 C12.34615665 0.03362921 13.71393754 0.5308306 16 3 C16 4.32 16 5.64 16 7 C13.11788698 7.96070434 11.30149956 8.10581883 8.3125 8.0625 C7.10013672 8.04896484 7.10013672 8.04896484 5.86328125 8.03515625 C4.94095703 8.01775391 4.94095703 8.01775391 4 8 C4 6.02 4 4.04 4 2 C3.01 1.67 2.02 1.34 1 1 C1 6.94 1 12.88 1 19 C0.67 19 0.34 19 0 19 C0 12.73 0 6.46 0 0 Z " fill="#3D8EB3" transform="translate(87,42)"/>
<path d="M0 0 C1.32 0 2.64 0 4 0 C4 6.6 4 13.2 4 20 C2.68 20 1.36 20 0 20 C0 13.4 0 6.8 0 0 Z " fill="#3A7FAA" transform="translate(128,42)"/>
<path d="M0 0 C0.66 0 1.32 0 2 0 C2.33 1.98 2.66 3.96 3 6 C7.455 5.505 7.455 5.505 12 5 C12.33 3.68 12.66 2.36 13 1 C13.99 1.33 14.98 1.66 16 2 C16.1875 4.375 16.1875 4.375 16 7 C12.36804504 9.42130331 10.61650652 9.21022785 6.3125 9.125 C5.13300781 9.10695313 3.95351562 9.08890625 2.73828125 9.0703125 C1.83464844 9.04710937 0.93101563 9.02390625 0 9 C0 6.03 0 3.06 0 0 Z " fill="#2E609A" transform="translate(108,52)"/>
<path d="M0 0 C2.97 0 5.94 0 9 0 C9 0.33 9 0.66 9 1 C7.02 1 5.04 1 3 1 C3 2.98 3 4.96 3 7 C8.445 6.505 8.445 6.505 14 6 C13.34 7.32 12.68 8.64 12 10 C8.04 10 4.08 10 0 10 C0 6.7 0 3.4 0 0 Z " fill="#1075A5" transform="translate(88,43)"/>
<path d="M0 0 C3.96 0 7.92 0 12 0 C10.515 1.485 10.515 1.485 9 3 C9 3.99 9 4.98 9 6 C3.52173913 6.36521739 3.52173913 6.36521739 1.125 4.6875 C0 3 0 3 0 0 Z " fill="#1E5D99" transform="translate(26,53)"/>
<path d="M0 0 C1.32 0 2.64 0 4 0 C4 4.62 4 9.24 4 14 C3.67 13.01 3.34 12.02 3 11 C2.34 11 1.68 11 1 11 C0.67 11.66 0.34 12.32 0 13 C0 8.71 0 4.42 0 0 Z " fill="#2D83AD" transform="translate(79,42)"/>
<path d="M0 0 C0.99 0 1.98 0 3 0 C3 5.28 3 10.56 3 16 C2.01 15.67 1.02 15.34 0 15 C0 10.05 0 5.1 0 0 Z " fill="#0F6A9E" transform="translate(66,42)"/>
<path d="M0 0 C2.64 0 5.28 0 8 0 C8.66 1.32 9.32 2.64 10 4 C9 5 9 5 6.93359375 5.09765625 C6.10988281 5.08605469 5.28617187 5.07445312 4.4375 5.0625 C3.61121094 5.05347656 2.78492187 5.04445313 1.93359375 5.03515625 C1.29550781 5.02355469 0.65742187 5.01195312 0 5 C0 3.35 0 1.7 0 0 Z " fill="none" transform="translate(111,53)"/>
<path d="M0 0 C2.64 0 5.28 0 8 0 C8.33 1.65 8.66 3.3 9 5 C6.03 5 3.06 5 0 5 C0 3.35 0 1.7 0 0 Z " fill="none" transform="translate(91,53)"/>
<path d="M0 0 C0.99 0 1.98 0 3 0 C3 3.63 3 7.26 3 11 C2.01 11.495 2.01 11.495 1 12 C1 11.34 1 10.68 1 10 C-2.63 9.67 -6.26 9.34 -10 9 C-10 8.67 -10 8.34 -10 8 C-6.7 8 -3.4 8 0 8 C0 5.36 0 2.72 0 0 Z " fill="#0C6FA0" transform="translate(58,42)"/>
<path d="M0 0 C2.31 0 4.62 0 7 0 C7.33 1.65 7.66 3.3 8 5 C5.36 5 2.72 5 0 5 C0 3.35 0 1.7 0 0 Z " fill="none" transform="translate(111,45)"/>
<path d="M0 0 C2.31 0 4.62 0 7 0 C7.5625 1.9375 7.5625 1.9375 8 4 C7 5 7 5 3.4375 5.0625 C2.303125 5.041875 1.16875 5.02125 0 5 C0 3.35 0 1.7 0 0 Z " fill="none" transform="translate(91,45)"/>
<path d="M0 0 C1.93681161 -0.08107583 3.8745934 -0.13922475 5.8125 -0.1875 C6.89144531 -0.22230469 7.97039062 -0.25710937 9.08203125 -0.29296875 C12 0 12 0 13.88671875 1.26171875 C15 3 15 3 15 7 C13.68 7 12.36 7 11 7 C10.34 5.02 9.68 3.04 9 1 C6.03 1 3.06 1 0 1 C0 0.67 0 0.34 0 0 Z " fill="#1B7FA9" transform="translate(108,42)"/>
<path d="M0 0 C-0.33 1.65 -0.66 3.3 -1 5 C-1.66 4.67 -2.32 4.34 -3 4 C-4.54023996 3.93049459 -6.08334988 3.91547643 -7.625 3.9375 C-8.44226563 3.94652344 -9.25953125 3.95554687 -10.1015625 3.96484375 C-10.72804688 3.97644531 -11.35453125 3.98804688 -12 4 C-12 3.34 -12 2.68 -12 2 C-10.56656 1.46809459 -9.12804633 0.94984742 -7.6875 0.4375 C-6.48673828 0.00244141 -6.48673828 0.00244141 -5.26171875 -0.44140625 C-3 -1 -3 -1 0 0 Z " fill="#12699E" transform="translate(122,50)"/>
<path d="M0 0 C0.99 0.33 1.98 0.66 3 1 C3 3.64 3 6.28 3 9 C2.01 9 1.02 9 0 9 C0 6.03 0 3.06 0 0 Z " fill="#1E5995" transform="translate(45,52)"/>
<path d="M0 0 C-0.99 1.485 -0.99 1.485 -2 3 C-4.3828125 3.29296875 -4.3828125 3.29296875 -7.125 3.1875 C-8.03507812 3.16042969 -8.94515625 3.13335937 -9.8828125 3.10546875 C-10.58148438 3.07066406 -11.28015625 3.03585938 -12 3 C-9.84267191 0.84267191 -8.88177557 0.51705175 -6 -0.1875 C-5.29875 -0.36667969 -4.5975 -0.54585937 -3.875 -0.73046875 C-2 -1 -2 -1 0 0 Z " fill="#0B669C" transform="translate(102,50)"/>
<path d="M0 0 C0 2.64 0 5.28 0 8 C-0.99 8 -1.98 8 -3 8 C-3 5.69 -3 3.38 -3 1 C-1 0 -1 0 0 0 Z " fill="#205795" transform="translate(61,53)"/>
<path d="M0 0 C0.99 0 1.98 0 3 0 C3 1.98 3 3.96 3 6 C2.01 6 1.02 6 0 6 C0 4.02 0 2.04 0 0 Z " fill="#0873A2" transform="translate(45,42)"/>
<path d="M0 0 C0.66 0 1.32 0 2 0 C2 1.65 2 3.3 2 5 C0.02 5.99 0.02 5.99 -2 7 C-1.34 4.69 -0.68 2.38 0 0 Z " fill="#1F5B98" transform="translate(80,53)"/>
<path d="M0 0 C1.32 0.66 2.64 1.32 4 2 C3.67 3.32 3.34 4.64 3 6 C3 5.34 3 4.68 3 4 C2.01 4.33 1.02 4.66 0 5 C-0.5625 3.0625 -0.5625 3.0625 -1 1 C-0.67 0.67 -0.34 0.34 0 0 Z " fill="#3672A3" transform="translate(100,52)"/>
</svg>
